<?xml version="1.0" encoding="utf-8"?>
<!-- Generator: Adobe Illustrator 27.0.0, SVG Export Plug-In . SVG Version: 6.00 Build 0)  -->
<svg version="1.2" baseProfile="tiny" id="Ebene_1" xmlns="http://www.w3.org/2000/svg" xmlns:xlink="http://www.w3.org/1999/xlink"
	 x="0px" y="0px" viewBox="0 0 36.3 10.6" overflow="visible" xml:space="preserve">
<g>
	<polygon fill="#159AED" points="5.3,8.5 4.6,7.7 3.9,7.7 3.9,8.4 4.7,9.1 3.9,9.8 3.9,10.5 4.6,10.5 5.3,9.7 6.1,10.5 6.7,10.5 
		6.7,9.8 6,9.1 6.7,8.4 6.7,7.7 6.1,7.7 	"/>
	<rect x="7.7" y="7.7" fill="#159AED" width="2.8" height="2.8"/>
	<path fill="#159AED" d="M1.5,7.6C0.7,7.6,0,8.2,0,9.1s0.7,1.5,1.5,1.5c0.8,0,1.5-0.7,1.5-1.5S2.4,7.6,1.5,7.6z"/>
	<polygon fill="#159AED" points="1.5,6 2.3,6.7 2.9,6.7 2.9,6.1 2.2,5.3 2.9,4.6 2.9,3.9 2.3,3.9 1.5,4.7 0.8,3.9 0.2,3.9 0.2,4.6 
		0.9,5.3 0.2,6.1 0.2,6.7 0.8,6.7 	"/>
	<rect x="3.9" y="0.2" fill="#159AED" width="2.8" height="2.8"/>
	<path fill="#159AED" d="M9.1,0C8.2,0,7.6,0.7,7.6,1.5s0.7,1.5,1.5,1.5c0.8,0,1.5-0.7,1.5-1.5S9.9,0,9.1,0z"/>
	<path fill="#FFFFFF" d="M15.4,4.5c0.2-0.1,0.3-0.1,0.5-0.1c0.1,0,0.2,0,0.4,0.1c0.1,0,0.2,0.1,0.3,0.2c0.1,0.1,0.2,0.2,0.2,0.2
		l0.6-0.7C17.2,4,17,3.8,16.7,3.7c-0.3-0.1-0.6-0.2-0.9-0.2c-0.4,0-0.7,0.1-1,0.3c-0.3,0.2-0.5,0.4-0.7,0.7c-0.2,0.3-0.2,0.6-0.2,1
		c0,0.4,0.1,0.7,0.2,1c0.2,0.3,0.4,0.5,0.7,0.7c0.3,0.2,0.6,0.3,1,0.3c0.3,0,0.6-0.1,0.9-0.2c0.3-0.1,0.5-0.3,0.7-0.5L16.8,6
		c-0.1,0.1-0.2,0.2-0.3,0.3c-0.1,0.1-0.2,0.1-0.3,0.2c-0.1,0-0.2,0.1-0.4,0.1c-0.2,0-0.4,0-0.5-0.1C15.2,6.3,15.1,6.1,15,6
		c-0.1-0.2-0.1-0.3-0.1-0.5c0-0.2,0-0.4,0.1-0.6C15.1,4.7,15.2,4.6,15.4,4.5z"/>
	<path fill="#FFFFFF" d="M20.1,3.5c-0.2,0-0.4,0-0.5,0.1S19.3,3.8,19.1,4C19.1,4,19,4.1,19,4.2l0-0.6h-1v3.8h1v-2
		c0-0.1,0-0.2,0.1-0.3c0-0.1,0.1-0.2,0.2-0.3c0.1-0.1,0.2-0.1,0.3-0.2c0.1,0,0.2-0.1,0.3-0.1c0.1,0,0.2,0,0.3,0c0.1,0,0.2,0,0.2,0.1
		l0.3-1.1c-0.1,0-0.1,0-0.2-0.1S20.2,3.5,20.1,3.5z"/>
	<path fill="#FFFFFF" d="M23,5.8c0,0.1-0.1,0.2-0.1,0.3c0,0,0-0.1,0-0.1c0-0.1-0.1-0.2-0.1-0.3l-0.9-2.2h-1.2l1.7,3.8L21.7,9h1
		l0.7-1.6l1.6-3.8h-1.2L23,5.8z"/>
	<path fill="#FFFFFF" d="M28.5,3.7c-0.3-0.2-0.6-0.3-0.9-0.3c-0.2,0-0.4,0-0.6,0.1c-0.2,0.1-0.4,0.2-0.5,0.3c0,0,0,0.1-0.1,0.1
		l0-0.5h-1v5.4h1v-2c0,0,0,0,0,0c0.1,0.1,0.3,0.2,0.5,0.3c0.2,0.1,0.4,0.1,0.6,0.1c0.3,0,0.6-0.1,0.9-0.3C28.8,7,29,6.7,29.1,6.4
		c0.1-0.3,0.2-0.6,0.2-1c0-0.4-0.1-0.7-0.2-1C29,4.1,28.8,3.9,28.5,3.7z M28.2,6c-0.1,0.2-0.2,0.3-0.3,0.4c-0.1,0.1-0.3,0.1-0.5,0.1
		c-0.2,0-0.4,0-0.5-0.1c-0.1-0.1-0.3-0.2-0.3-0.4c-0.1-0.2-0.1-0.4-0.1-0.6c0-0.2,0-0.4,0.1-0.6c0.1-0.2,0.2-0.3,0.3-0.4
		c0.1-0.1,0.3-0.1,0.5-0.1c0.2,0,0.4,0,0.5,0.1c0.1,0.1,0.3,0.2,0.3,0.4c0.1,0.2,0.1,0.4,0.1,0.6C28.4,5.7,28.3,5.8,28.2,6z"/>
	<polygon fill="#FFFFFF" points="31.5,2.6 30.5,2.6 30.5,3.6 29.8,3.6 29.8,4.5 30.5,4.5 30.5,7.3 31.5,7.3 31.5,4.5 32.3,4.5 
		32.3,3.6 31.5,3.6 	"/>
	<rect x="33" y="3.6" fill="#FFFFFF" width="1" height="3.8"/>
	<rect x="35.2" y="3.6" fill="#FFFFFF" width="1" height="3.8"/>
	<path fill="#FFFFFF" d="M33.5,1.7c-0.3,0-0.6,0.3-0.6,0.6c0,0.3,0.3,0.6,0.6,0.6s0.6-0.3,0.6-0.6C34.1,2,33.9,1.7,33.5,1.7z"/>
	<path fill="#FFFFFF" d="M35.7,2.9c0.3,0,0.6-0.3,0.6-0.6c0-0.3-0.3-0.6-0.6-0.6S35.1,2,35.1,2.3C35.1,2.6,35.4,2.9,35.7,2.9z"/>
</g>
<g>
</g>
<g>
</g>
<g>
</g>
<g>
</g>
<g>
</g>
<g>
</g>
</svg>
